<svg xmlns="http://www.w3.org/2000/svg" xmlns:xlink="http://www.w3.org/1999/xlink" width="200" zoomAndPan="magnify" viewBox="0 0 150 149.999998" height="200" preserveAspectRatio="xMidYMid meet" version="1.0"><defs><g/><clipPath id="be63f0a26f"><path d="M 37.796875 25.378906 L 112.046875 25.378906 L 112.046875 82.378906 L 37.796875 82.378906 Z M 37.796875 25.378906 " clip-rule="nonzero"/></clipPath><clipPath id="77e29e073c"><path d="M 0.078125 3 L 7 3 L 7 11 L 0.078125 11 Z M 0.078125 3 " clip-rule="nonzero"/></clipPath><clipPath id="da1a343159"><rect x="0" width="132" y="0" height="13"/></clipPath><clipPath id="26c76a86e9"><path d="M 0.160156 6 L 16 6 L 16 20 L 0.160156 20 Z M 0.160156 6 " clip-rule="nonzero"/></clipPath><clipPath id="1fa1781d57"><rect x="0" width="123" y="0" height="25"/></clipPath></defs><g clip-path="url(#be63f0a26f)"><path fill="#ffe054" d="M 107.074219 48.691406 L 107.074219 42.449219 C 107.074219 39.851562 104.949219 37.726562 102.351562 37.726562 L 60 37.726562 L 90.3125 34.417969 L 90.3125 28.917969 C 90.3125 27.835938 89.84375 26.902344 88.976562 26.257812 C 88.105469 25.609375 87.078125 25.429688 86.042969 25.742188 L 48.582031 37.015625 C 47.15625 37.445312 46.222656 38.703125 46.222656 40.191406 L 46.222656 50.882812 L 58.949219 50.882812 C 61.128906 50.882812 62.914062 52.667969 62.914062 54.847656 C 62.914062 57.03125 61.128906 58.8125 58.949219 58.8125 L 41.761719 58.8125 C 39.582031 58.8125 37.796875 60.597656 37.796875 62.777344 C 37.796875 64.960938 39.582031 66.742188 41.761719 66.742188 L 70.152344 66.742188 C 72.332031 66.742188 74.117188 68.527344 74.117188 70.707031 C 74.117188 72.890625 72.332031 74.671875 70.152344 74.671875 L 58.601562 74.671875 C 56.421875 74.671875 54.636719 76.457031 54.636719 78.636719 C 54.636719 80.820312 56.421875 82.601562 58.601562 82.601562 L 102.347656 82.601562 C 104.945312 82.601562 107.074219 80.476562 107.074219 77.878906 L 107.074219 71.636719 L 98.308594 71.636719 C 97.535156 71.636719 96.90625 71.003906 96.90625 70.230469 C 96.90625 69.457031 97.535156 68.824219 98.308594 68.824219 L 109.523438 68.824219 C 110.996094 68.824219 112.203125 67.621094 112.203125 66.144531 L 112.203125 54.183594 C 112.203125 52.707031 111 51.503906 109.523438 51.503906 L 93.453125 51.503906 C 92.679688 51.503906 92.046875 50.871094 92.046875 50.097656 C 92.046875 49.324219 92.679688 48.691406 93.453125 48.691406 Z M 93.023438 57.707031 C 91.664062 57.707031 90.5625 58.808594 90.5625 60.167969 C 90.5625 61.527344 91.664062 62.628906 93.023438 62.628906 C 94.382812 62.628906 95.484375 61.527344 95.484375 60.167969 C 95.484375 58.804688 94.382812 57.707031 93.023438 57.707031 Z M 87.175781 60.164062 C 87.175781 56.949219 89.808594 54.316406 93.023438 54.316406 L 109.390625 54.316406 L 109.390625 66.015625 L 93.023438 66.015625 C 89.808594 66.015625 87.175781 63.382812 87.175781 60.164062 Z M 87.175781 60.164062 " fill-opacity="1" fill-rule="evenodd"/></g><g transform="matrix(1, 0, 0, 1, 10, 112)"><g clip-path="url(#da1a343159)"><g clip-path="url(#77e29e073c)"><g fill="#dbc874" fill-opacity="1"><g transform="translate(0.120546, 10.123407)"><g><path d="M 2.359375 -5.890625 L 0.046875 -5.890625 L 0.046875 -6.984375 L 5.96875 -6.984375 L 5.96875 -5.890625 L 3.65625 -5.890625 L 3.65625 0 L 2.359375 0 Z M 2.359375 -5.890625 "/></g></g></g></g><g fill="#dbc874" fill-opacity="1"><g transform="translate(7.74274, 10.123407)"><g><path d="M 3.9375 0.09375 C 2.976562 0.09375 2.226562 -0.175781 1.6875 -0.71875 C 1.144531 -1.257812 0.875 -2.035156 0.875 -3.046875 L 0.875 -6.984375 L 2.171875 -6.984375 L 2.171875 -3.09375 C 2.171875 -1.71875 2.765625 -1.03125 3.953125 -1.03125 C 5.128906 -1.03125 5.71875 -1.71875 5.71875 -3.09375 L 5.71875 -6.984375 L 7 -6.984375 L 7 -3.046875 C 7 -2.035156 6.726562 -1.257812 6.1875 -0.71875 C 5.65625 -0.175781 4.90625 0.09375 3.9375 0.09375 Z M 3.9375 0.09375 "/></g></g></g><g fill="#dbc874" fill-opacity="1"><g transform="translate(17.232981, 10.123407)"><g/></g></g><g fill="#dbc874" fill-opacity="1"><g transform="translate(21.598582, 10.123407)"><g><path d="M 0.9375 -6.984375 L 4 -6.984375 C 4.738281 -6.984375 5.394531 -6.835938 5.96875 -6.546875 C 6.550781 -6.265625 7.003906 -5.859375 7.328125 -5.328125 C 7.648438 -4.796875 7.8125 -4.1875 7.8125 -3.5 C 7.8125 -2.800781 7.648438 -2.1875 7.328125 -1.65625 C 7.003906 -1.132812 6.550781 -0.726562 5.96875 -0.4375 C 5.394531 -0.144531 4.738281 0 4 0 L 0.9375 0 Z M 3.9375 -1.09375 C 4.445312 -1.09375 4.894531 -1.191406 5.28125 -1.390625 C 5.675781 -1.585938 5.976562 -1.867188 6.1875 -2.234375 C 6.394531 -2.597656 6.5 -3.019531 6.5 -3.5 C 6.5 -3.976562 6.394531 -4.394531 6.1875 -4.75 C 5.976562 -5.113281 5.675781 -5.394531 5.28125 -5.59375 C 4.894531 -5.789062 4.445312 -5.890625 3.9375 -5.890625 L 2.234375 -5.890625 L 2.234375 -1.09375 Z M 3.9375 -1.09375 "/></g></g></g><g fill="#dbc874" fill-opacity="1"><g transform="translate(31.458436, 10.123407)"><g><path d="M 0.9375 -6.984375 L 2.234375 -6.984375 L 2.234375 0 L 0.9375 0 Z M 0.9375 -6.984375 "/></g></g></g><g fill="#dbc874" fill-opacity="1"><g transform="translate(36.253588, 10.123407)"><g><path d="M 7.15625 -6.984375 L 7.15625 0 L 6.078125 0 L 2.21875 -4.734375 L 2.21875 0 L 0.9375 0 L 0.9375 -6.984375 L 2 -6.984375 L 5.859375 -2.25 L 5.859375 -6.984375 Z M 7.15625 -6.984375 "/></g></g></g><g fill="#dbc874" fill-opacity="1"><g transform="translate(45.953609, 10.123407)"><g><path d="M 6.1875 -1.09375 L 6.1875 0 L 0.9375 0 L 0.9375 -6.984375 L 6.046875 -6.984375 L 6.046875 -5.90625 L 2.234375 -5.90625 L 2.234375 -4.078125 L 5.609375 -4.078125 L 5.609375 -3.015625 L 2.234375 -3.015625 L 2.234375 -1.09375 Z M 6.1875 -1.09375 "/></g></g></g><g fill="#dbc874" fill-opacity="1"><g transform="translate(54.255092, 10.123407)"><g><path d="M 5.515625 0 L 4.078125 -2.046875 C 4.023438 -2.035156 3.9375 -2.03125 3.8125 -2.03125 L 2.234375 -2.03125 L 2.234375 0 L 0.9375 0 L 0.9375 -6.984375 L 3.8125 -6.984375 C 4.414062 -6.984375 4.941406 -6.882812 5.390625 -6.6875 C 5.847656 -6.488281 6.195312 -6.203125 6.4375 -5.828125 C 6.675781 -5.453125 6.796875 -5.007812 6.796875 -4.5 C 6.796875 -3.976562 6.664062 -3.523438 6.40625 -3.140625 C 6.144531 -2.765625 5.773438 -2.484375 5.296875 -2.296875 L 6.90625 0 Z M 5.484375 -4.5 C 5.484375 -4.945312 5.335938 -5.289062 5.046875 -5.53125 C 4.753906 -5.769531 4.320312 -5.890625 3.75 -5.890625 L 2.234375 -5.890625 L 2.234375 -3.109375 L 3.75 -3.109375 C 4.320312 -3.109375 4.753906 -3.226562 5.046875 -3.46875 C 5.335938 -3.707031 5.484375 -4.050781 5.484375 -4.5 Z M 5.484375 -4.5 "/></g></g></g><g fill="#dbc874" fill-opacity="1"><g transform="translate(63.165941, 10.123407)"><g><path d="M 4.203125 0.09375 C 3.492188 0.09375 2.851562 -0.0546875 2.28125 -0.359375 C 1.707031 -0.671875 1.253906 -1.097656 0.921875 -1.640625 C 0.597656 -2.191406 0.4375 -2.8125 0.4375 -3.5 C 0.4375 -4.175781 0.597656 -4.785156 0.921875 -5.328125 C 1.253906 -5.878906 1.707031 -6.3125 2.28125 -6.625 C 2.851562 -6.9375 3.492188 -7.09375 4.203125 -7.09375 C 4.910156 -7.09375 5.550781 -6.9375 6.125 -6.625 C 6.695312 -6.3125 7.144531 -5.878906 7.46875 -5.328125 C 7.800781 -4.785156 7.96875 -4.175781 7.96875 -3.5 C 7.96875 -2.8125 7.800781 -2.191406 7.46875 -1.640625 C 7.144531 -1.097656 6.695312 -0.671875 6.125 -0.359375 C 5.550781 -0.0546875 4.910156 0.09375 4.203125 0.09375 Z M 4.203125 -1.03125 C 4.671875 -1.03125 5.085938 -1.132812 5.453125 -1.34375 C 5.828125 -1.5625 6.117188 -1.859375 6.328125 -2.234375 C 6.546875 -2.609375 6.65625 -3.03125 6.65625 -3.5 C 6.65625 -3.957031 6.546875 -4.375 6.328125 -4.75 C 6.117188 -5.132812 5.828125 -5.429688 5.453125 -5.640625 C 5.085938 -5.847656 4.671875 -5.953125 4.203125 -5.953125 C 3.734375 -5.953125 3.3125 -5.847656 2.9375 -5.640625 C 2.570312 -5.429688 2.28125 -5.132812 2.0625 -4.75 C 1.851562 -4.375 1.75 -3.957031 1.75 -3.5 C 1.75 -3.03125 1.851562 -2.609375 2.0625 -2.234375 C 2.28125 -1.859375 2.570312 -1.5625 2.9375 -1.34375 C 3.3125 -1.132812 3.734375 -1.03125 4.203125 -1.03125 Z M 4.203125 -1.03125 "/></g></g></g><g fill="#dbc874" fill-opacity="1"><g transform="translate(73.185626, 10.123407)"><g/></g></g><g fill="#dbc874" fill-opacity="1"><g transform="translate(77.551228, 10.123407)"><g><path d="M 3.109375 0.09375 C 2.566406 0.09375 2.039062 0.0195312 1.53125 -0.125 C 1.03125 -0.28125 0.632812 -0.484375 0.34375 -0.734375 L 0.796875 -1.75 C 1.085938 -1.519531 1.4375 -1.332031 1.84375 -1.1875 C 2.257812 -1.050781 2.679688 -0.984375 3.109375 -0.984375 C 3.628906 -0.984375 4.015625 -1.066406 4.265625 -1.234375 C 4.523438 -1.398438 4.65625 -1.617188 4.65625 -1.890625 C 4.65625 -2.085938 4.582031 -2.25 4.4375 -2.375 C 4.289062 -2.507812 4.109375 -2.613281 3.890625 -2.6875 C 3.671875 -2.757812 3.375 -2.84375 3 -2.9375 C 2.46875 -3.0625 2.035156 -3.1875 1.703125 -3.3125 C 1.367188 -3.4375 1.082031 -3.632812 0.84375 -3.90625 C 0.613281 -4.175781 0.5 -4.539062 0.5 -5 C 0.5 -5.382812 0.601562 -5.734375 0.8125 -6.046875 C 1.019531 -6.367188 1.332031 -6.625 1.75 -6.8125 C 2.175781 -7 2.695312 -7.09375 3.3125 -7.09375 C 3.738281 -7.09375 4.15625 -7.035156 4.5625 -6.921875 C 4.976562 -6.816406 5.335938 -6.664062 5.640625 -6.46875 L 5.234375 -5.46875 C 4.921875 -5.644531 4.597656 -5.78125 4.265625 -5.875 C 3.941406 -5.96875 3.625 -6.015625 3.3125 -6.015625 C 2.789062 -6.015625 2.40625 -5.925781 2.15625 -5.75 C 1.90625 -5.570312 1.78125 -5.34375 1.78125 -5.0625 C 1.78125 -4.863281 1.851562 -4.703125 2 -4.578125 C 2.144531 -4.453125 2.328125 -4.347656 2.546875 -4.265625 C 2.765625 -4.191406 3.0625 -4.113281 3.4375 -4.03125 C 3.957031 -3.90625 4.382812 -3.773438 4.71875 -3.640625 C 5.050781 -3.515625 5.335938 -3.316406 5.578125 -3.046875 C 5.816406 -2.785156 5.9375 -2.429688 5.9375 -1.984375 C 5.9375 -1.585938 5.828125 -1.234375 5.609375 -0.921875 C 5.398438 -0.609375 5.082031 -0.359375 4.65625 -0.171875 C 4.238281 0.00390625 3.722656 0.09375 3.109375 0.09375 Z M 3.109375 0.09375 "/></g></g></g><g fill="#dbc874" fill-opacity="1"><g transform="translate(85.44314, 10.123407)"><g><path d="M 6.1875 -1.09375 L 6.1875 0 L 0.9375 0 L 0.9375 -6.984375 L 6.046875 -6.984375 L 6.046875 -5.90625 L 2.234375 -5.90625 L 2.234375 -4.078125 L 5.609375 -4.078125 L 5.609375 -3.015625 L 2.234375 -3.015625 L 2.234375 -1.09375 Z M 6.1875 -1.09375 "/></g></g></g><g fill="#dbc874" fill-opacity="1"><g transform="translate(93.744622, 10.123407)"><g><path d="M 5.71875 -3.578125 L 6.9375 -3.578125 L 6.9375 -0.78125 C 6.582031 -0.5 6.164062 -0.28125 5.6875 -0.125 C 5.207031 0.0195312 4.710938 0.09375 4.203125 0.09375 C 3.492188 0.09375 2.851562 -0.0546875 2.28125 -0.359375 C 1.707031 -0.671875 1.253906 -1.097656 0.921875 -1.640625 C 0.597656 -2.191406 0.4375 -2.8125 0.4375 -3.5 C 0.4375 -4.175781 0.597656 -4.785156 0.921875 -5.328125 C 1.253906 -5.878906 1.707031 -6.3125 2.28125 -6.625 C 2.851562 -6.9375 3.5 -7.09375 4.21875 -7.09375 C 4.8125 -7.09375 5.347656 -6.992188 5.828125 -6.796875 C 6.304688 -6.609375 6.707031 -6.328125 7.03125 -5.953125 L 6.203125 -5.15625 C 5.671875 -5.6875 5.03125 -5.953125 4.28125 -5.953125 C 3.789062 -5.953125 3.351562 -5.847656 2.96875 -5.640625 C 2.582031 -5.429688 2.28125 -5.140625 2.0625 -4.765625 C 1.851562 -4.398438 1.75 -3.976562 1.75 -3.5 C 1.75 -3.03125 1.851562 -2.609375 2.0625 -2.234375 C 2.28125 -1.859375 2.582031 -1.5625 2.96875 -1.34375 C 3.351562 -1.132812 3.785156 -1.03125 4.265625 -1.03125 C 4.816406 -1.03125 5.300781 -1.148438 5.71875 -1.390625 Z M 5.71875 -3.578125 "/></g></g></g><g fill="#dbc874" fill-opacity="1"><g transform="translate(103.065042, 10.123407)"><g><path d="M 3.9375 0.09375 C 2.976562 0.09375 2.226562 -0.175781 1.6875 -0.71875 C 1.144531 -1.257812 0.875 -2.035156 0.875 -3.046875 L 0.875 -6.984375 L 2.171875 -6.984375 L 2.171875 -3.09375 C 2.171875 -1.71875 2.765625 -1.03125 3.953125 -1.03125 C 5.128906 -1.03125 5.71875 -1.71875 5.71875 -3.09375 L 5.71875 -6.984375 L 7 -6.984375 L 7 -3.046875 C 7 -2.035156 6.726562 -1.257812 6.1875 -0.71875 C 5.65625 -0.175781 4.90625 0.09375 3.9375 0.09375 Z M 3.9375 0.09375 "/></g></g></g><g fill="#dbc874" fill-opacity="1"><g transform="translate(112.55528, 10.123407)"><g><path d="M 5.515625 0 L 4.078125 -2.046875 C 4.023438 -2.035156 3.9375 -2.03125 3.8125 -2.03125 L 2.234375 -2.03125 L 2.234375 0 L 0.9375 0 L 0.9375 -6.984375 L 3.8125 -6.984375 C 4.414062 -6.984375 4.941406 -6.882812 5.390625 -6.6875 C 5.847656 -6.488281 6.195312 -6.203125 6.4375 -5.828125 C 6.675781 -5.453125 6.796875 -5.007812 6.796875 -4.5 C 6.796875 -3.976562 6.664062 -3.523438 6.40625 -3.140625 C 6.144531 -2.765625 5.773438 -2.484375 5.296875 -2.296875 L 6.90625 0 Z M 5.484375 -4.5 C 5.484375 -4.945312 5.335938 -5.289062 5.046875 -5.53125 C 4.753906 -5.769531 4.320312 -5.890625 3.75 -5.890625 L 2.234375 -5.890625 L 2.234375 -3.109375 L 3.75 -3.109375 C 4.320312 -3.109375 4.753906 -3.226562 5.046875 -3.46875 C 5.335938 -3.707031 5.484375 -4.050781 5.484375 -4.5 Z M 5.484375 -4.5 "/></g></g></g><g fill="#dbc874" fill-opacity="1"><g transform="translate(121.466129, 10.123407)"><g><path d="M 4.203125 0.09375 C 3.492188 0.09375 2.851562 -0.0546875 2.28125 -0.359375 C 1.707031 -0.671875 1.253906 -1.097656 0.921875 -1.640625 C 0.597656 -2.191406 0.4375 -2.8125 0.4375 -3.5 C 0.4375 -4.175781 0.597656 -4.785156 0.921875 -5.328125 C 1.253906 -5.878906 1.707031 -6.3125 2.28125 -6.625 C 2.851562 -6.9375 3.492188 -7.09375 4.203125 -7.09375 C 4.910156 -7.09375 5.550781 -6.9375 6.125 -6.625 C 6.695312 -6.3125 7.144531 -5.878906 7.46875 -5.328125 C 7.800781 -4.785156 7.96875 -4.175781 7.96875 -3.5 C 7.96875 -2.8125 7.800781 -2.191406 7.46875 -1.640625 C 7.144531 -1.097656 6.695312 -0.671875 6.125 -0.359375 C 5.550781 -0.0546875 4.910156 0.09375 4.203125 0.09375 Z M 4.203125 -1.03125 C 4.671875 -1.03125 5.085938 -1.132812 5.453125 -1.34375 C 5.828125 -1.5625 6.117188 -1.859375 6.328125 -2.234375 C 6.546875 -2.609375 6.65625 -3.03125 6.65625 -3.5 C 6.65625 -3.957031 6.546875 -4.375 6.328125 -4.75 C 6.117188 -5.132812 5.828125 -5.429688 5.453125 -5.640625 C 5.085938 -5.847656 4.671875 -5.953125 4.203125 -5.953125 C 3.734375 -5.953125 3.3125 -5.847656 2.9375 -5.640625 C 2.570312 -5.429688 2.28125 -5.132812 2.0625 -4.75 C 1.851562 -4.375 1.75 -3.957031 1.75 -3.5 C 1.75 -3.03125 1.851562 -2.609375 2.0625 -2.234375 C 2.28125 -1.859375 2.570312 -1.5625 2.9375 -1.34375 C 3.3125 -1.132812 3.734375 -1.03125 4.203125 -1.03125 Z M 4.203125 -1.03125 "/></g></g></g></g></g><g transform="matrix(1, 0, 0, 1, 14, 85)"><g clip-path="url(#1fa1781d57)"><g clip-path="url(#26c76a86e9)"><g fill="#757366" fill-opacity="1"><g transform="translate(1.033326, 19.184014)"><g><path d="M 10.296875 -3.046875 L 3.71875 -3.046875 L 2.421875 0 L -0.09375 0 L 5.828125 -13.140625 L 8.21875 -13.140625 L 14.15625 0 L 11.609375 0 Z M 9.484375 -4.953125 L 7 -10.703125 L 4.546875 -4.953125 Z M 9.484375 -4.953125 "/></g></g></g></g><g fill="#757366" fill-opacity="1"><g transform="translate(15.923194, 19.184014)"><g><path d="M 1.546875 -13.9375 L 3.890625 -13.9375 L 3.890625 0 L 1.546875 0 Z M 1.546875 -13.9375 "/></g></g></g><g fill="#757366" fill-opacity="1"><g transform="translate(22.175992, 19.184014)"><g><path d="M 5.640625 -4.296875 L 3.890625 -2.640625 L 3.890625 0 L 1.546875 0 L 1.546875 -13.9375 L 3.890625 -13.9375 L 3.890625 -5.515625 L 8.75 -10.03125 L 11.5625 -10.03125 L 7.375 -5.828125 L 11.96875 0 L 9.109375 0 Z M 5.640625 -4.296875 "/></g></g></g><g fill="#757366" fill-opacity="1"><g transform="translate(34.944145, 19.184014)"><g><path d="M 10.96875 -4.953125 C 10.96875 -4.796875 10.957031 -4.566406 10.9375 -4.265625 L 3.0625 -4.265625 C 3.195312 -3.523438 3.554688 -2.9375 4.140625 -2.5 C 4.722656 -2.070312 5.445312 -1.859375 6.3125 -1.859375 C 7.414062 -1.859375 8.320312 -2.222656 9.03125 -2.953125 L 10.296875 -1.5 C 9.835938 -0.957031 9.265625 -0.550781 8.578125 -0.28125 C 7.890625 -0.0078125 7.113281 0.125 6.25 0.125 C 5.144531 0.125 4.171875 -0.09375 3.328125 -0.53125 C 2.492188 -0.96875 1.847656 -1.578125 1.390625 -2.359375 C 0.941406 -3.140625 0.71875 -4.023438 0.71875 -5.015625 C 0.71875 -5.992188 0.9375 -6.875 1.375 -7.65625 C 1.820312 -8.4375 2.4375 -9.046875 3.21875 -9.484375 C 4.007812 -9.921875 4.898438 -10.140625 5.890625 -10.140625 C 6.867188 -10.140625 7.742188 -9.921875 8.515625 -9.484375 C 9.285156 -9.054688 9.882812 -8.453125 10.3125 -7.671875 C 10.75 -6.890625 10.96875 -5.984375 10.96875 -4.953125 Z M 5.890625 -8.265625 C 5.140625 -8.265625 4.503906 -8.039062 3.984375 -7.59375 C 3.472656 -7.15625 3.160156 -6.566406 3.046875 -5.828125 L 8.734375 -5.828125 C 8.628906 -6.546875 8.320312 -7.128906 7.8125 -7.578125 C 7.300781 -8.035156 6.660156 -8.265625 5.890625 -8.265625 Z M 5.890625 -8.265625 "/></g></g></g><g fill="#757366" fill-opacity="1"><g transform="translate(47.449432, 19.184014)"><g/></g></g><g fill="#757366" fill-opacity="1"><g transform="translate(53.458143, 19.184014)"><g><path d="M 20.984375 -13.140625 L 16.625 0 L 14.03125 0 L 10.78125 -9.734375 L 7.46875 0 L 4.859375 0 L 0.5 -13.140625 L 3.046875 -13.140625 L 6.3125 -3.15625 L 9.703125 -13.140625 L 11.96875 -13.140625 L 15.28125 -3.09375 L 18.65625 -13.140625 Z M 20.984375 -13.140625 "/></g></g></g><g fill="#757366" fill-opacity="1"><g transform="translate(75.764622, 19.184014)"><g><path d="M 5.375 -10.140625 C 6.851562 -10.140625 7.984375 -9.785156 8.765625 -9.078125 C 9.546875 -8.367188 9.9375 -7.300781 9.9375 -5.875 L 9.9375 0 L 7.71875 0 L 7.71875 -1.21875 C 7.425781 -0.78125 7.015625 -0.445312 6.484375 -0.21875 C 5.953125 0.0078125 5.3125 0.125 4.5625 0.125 C 3.8125 0.125 3.15625 0 2.59375 -0.25 C 2.03125 -0.507812 1.59375 -0.867188 1.28125 -1.328125 C 0.976562 -1.785156 0.828125 -2.300781 0.828125 -2.875 C 0.828125 -3.769531 1.160156 -4.488281 1.828125 -5.03125 C 2.503906 -5.582031 3.5625 -5.859375 5 -5.859375 L 7.59375 -5.859375 L 7.59375 -6.015625 C 7.59375 -6.710938 7.378906 -7.25 6.953125 -7.625 C 6.535156 -8 5.914062 -8.1875 5.09375 -8.1875 C 4.53125 -8.1875 3.972656 -8.097656 3.421875 -7.921875 C 2.878906 -7.742188 2.421875 -7.5 2.046875 -7.1875 L 1.125 -8.90625 C 1.65625 -9.300781 2.285156 -9.601562 3.015625 -9.8125 C 3.753906 -10.03125 4.539062 -10.140625 5.375 -10.140625 Z M 5.046875 -1.578125 C 5.640625 -1.578125 6.164062 -1.710938 6.625 -1.984375 C 7.082031 -2.253906 7.40625 -2.640625 7.59375 -3.140625 L 7.59375 -4.296875 L 5.171875 -4.296875 C 3.816406 -4.296875 3.140625 -3.851562 3.140625 -2.96875 C 3.140625 -2.539062 3.304688 -2.203125 3.640625 -1.953125 C 3.984375 -1.703125 4.453125 -1.578125 5.046875 -1.578125 Z M 5.046875 -1.578125 "/></g></g></g><g fill="#757366" fill-opacity="1"><g transform="translate(87.988266, 19.184014)"><g><path d="M 1.546875 -13.9375 L 3.890625 -13.9375 L 3.890625 0 L 1.546875 0 Z M 1.546875 -13.9375 "/></g></g></g><g fill="#757366" fill-opacity="1"><g transform="translate(94.24107, 19.184014)"><g><path d="M 1.546875 -13.9375 L 3.890625 -13.9375 L 3.890625 0 L 1.546875 0 Z M 1.546875 -13.9375 "/></g></g></g><g fill="#757366" fill-opacity="1"><g transform="translate(100.493868, 19.184014)"><g><path d="M 10.96875 -4.953125 C 10.96875 -4.796875 10.957031 -4.566406 10.9375 -4.265625 L 3.0625 -4.265625 C 3.195312 -3.523438 3.554688 -2.9375 4.140625 -2.5 C 4.722656 -2.070312 5.445312 -1.859375 6.3125 -1.859375 C 7.414062 -1.859375 8.320312 -2.222656 9.03125 -2.953125 L 10.296875 -1.5 C 9.835938 -0.957031 9.265625 -0.550781 8.578125 -0.28125 C 7.890625 -0.0078125 7.113281 0.125 6.25 0.125 C 5.144531 0.125 4.171875 -0.09375 3.328125 -0.53125 C 2.492188 -0.96875 1.847656 -1.578125 1.390625 -2.359375 C 0.941406 -3.140625 0.71875 -4.023438 0.71875 -5.015625 C 0.71875 -5.992188 0.9375 -6.875 1.375 -7.65625 C 1.820312 -8.4375 2.4375 -9.046875 3.21875 -9.484375 C 4.007812 -9.921875 4.898438 -10.140625 5.890625 -10.140625 C 6.867188 -10.140625 7.742188 -9.921875 8.515625 -9.484375 C 9.285156 -9.054688 9.882812 -8.453125 10.3125 -7.671875 C 10.75 -6.890625 10.96875 -5.984375 10.96875 -4.953125 Z M 5.890625 -8.265625 C 5.140625 -8.265625 4.503906 -8.039062 3.984375 -7.59375 C 3.472656 -7.15625 3.160156 -6.566406 3.046875 -5.828125 L 8.734375 -5.828125 C 8.628906 -6.546875 8.320312 -7.128906 7.8125 -7.578125 C 7.300781 -8.035156 6.660156 -8.265625 5.890625 -8.265625 Z M 5.890625 -8.265625 "/></g></g></g><g fill="#757366" fill-opacity="1"><g transform="translate(112.99915, 19.184014)"><g><path d="M 7.5625 -0.546875 C 7.289062 -0.316406 6.957031 -0.144531 6.5625 -0.03125 C 6.164062 0.0703125 5.75 0.125 5.3125 0.125 C 4.207031 0.125 3.351562 -0.160156 2.75 -0.734375 C 2.15625 -1.304688 1.859375 -2.144531 1.859375 -3.25 L 1.859375 -8.078125 L 0.203125 -8.078125 L 0.203125 -9.953125 L 1.859375 -9.953125 L 1.859375 -12.25 L 4.203125 -12.25 L 4.203125 -9.953125 L 6.890625 -9.953125 L 6.890625 -8.078125 L 4.203125 -8.078125 L 4.203125 -3.3125 C 4.203125 -2.820312 4.320312 -2.445312 4.5625 -2.1875 C 4.800781 -1.925781 5.144531 -1.796875 5.59375 -1.796875 C 6.125 -1.796875 6.5625 -1.9375 6.90625 -2.21875 Z M 7.5625 -0.546875 "/></g></g></g></g></g></svg>